<svg width="1440" height="877" viewBox="0 0 1440 877" fill="none" xmlns="http://www.w3.org/2000/svg">
<rect x="-2" y="91.0002" width="1442" height="560" fill="#08142D"/>
<g filter="url(#filter0_f_2685_537)">
<path d="M615.863 514.26C541.281 569.862 338.388 454.592 283.563 381.053C228.738 307.513 410.191 256.874 484.774 201.272C559.357 145.669 663.426 185.439 718.251 258.979C773.076 332.519 690.446 458.657 615.863 514.26Z" fill="url(#paint0_linear_2685_537)"/>
</g>
<g filter="url(#filter1_f_2685_537)">
<path d="M1376.75 253.258C1411.85 333.775 1199.25 523.062 1092.8 569.478C986.341 615.895 998.77 429.449 963.662 348.932C928.555 268.415 1015.23 169.164 1121.69 122.748C1228.14 76.3315 1341.64 172.74 1376.75 253.258Z" fill="url(#paint1_linear_2685_537)"/>
</g>
<defs>
<filter id="filter0_f_2685_537" x="10.0043" y="-88.2345" width="989.435" height="880.556" filterUnits="userSpaceOnUse" color-interpolation-filters="sRGB">
<feFlood flood-opacity="0" result="BackgroundImageFix"/>
<feBlend mode="normal" in="SourceGraphic" in2="BackgroundImageFix" result="shape"/>
<feGaussianBlur stdDeviation="131.7" result="effect1_foregroundBlur_2685_537"/>
</filter>
<filter id="filter1_f_2685_537" x="656.334" y="-188.76" width="1023.68" height="1064.96" filterUnits="userSpaceOnUse" color-interpolation-filters="sRGB">
<feFlood flood-opacity="0" result="BackgroundImageFix"/>
<feBlend mode="normal" in="SourceGraphic" in2="BackgroundImageFix" result="shape"/>
<feGaussianBlur stdDeviation="149.7" result="effect1_foregroundBlur_2685_537"/>
</filter>
<linearGradient id="paint0_linear_2685_537" x1="653.43" y1="267.855" x2="383.343" y2="469.21" gradientUnits="userSpaceOnUse">
<stop offset="0.375" stop-color="#0901F9"/>
<stop offset="0.504808" stop-color="#FF1C1C"/>
</linearGradient>
<linearGradient id="paint1_linear_2685_537" x1="1106.6" y1="188.323" x2="1233.73" y2="479.902" gradientUnits="userSpaceOnUse">
<stop offset="0.230769" stop-color="#0175F9"/>
<stop offset="0.6875" stop-color="#1CFF4D"/>
</linearGradient>
</defs>
</svg>
